<svg width="58" height="49" viewBox="0 0 58 49" fill="none" xmlns="http://www.w3.org/2000/svg">
<path d="M28.3679 0.0658166L22.2248 2.87189C22.1907 2.88814 22.162 2.91369 22.1419 2.94558C22.1218 2.97748 22.1111 3.01442 22.1111 3.05214C22.1111 3.08985 22.1218 3.12679 22.1419 3.15869C22.162 3.19059 22.1907 3.21614 22.2248 3.23239L28.3679 6.02871C28.4593 6.07204 28.5591 6.09452 28.6602 6.09452C28.7613 6.09452 28.8612 6.07204 28.9525 6.02871L35.0957 3.22751C35.1297 3.21126 35.1584 3.18571 35.1785 3.15381C35.1987 3.12191 35.2093 3.08497 35.2093 3.04726C35.2093 3.00955 35.1987 2.97261 35.1785 2.94071C35.1584 2.90881 35.1297 2.88326 35.0957 2.86701L28.9476 0.0658166C28.8563 0.0224852 28.7564 0 28.6553 0C28.5542 0 28.4544 0.0224852 28.363 0.0658166" fill="#F77E23"/>
<path d="M28.6212 9.35107C25.9223 9.35107 23.8811 8.43034 23.8811 7.21243V4.02637L28.2071 5.99938C28.3479 6.06346 28.5007 6.09662 28.6553 6.09662C28.8099 6.09662 28.9628 6.06346 29.1035 5.99938L33.3613 4.05072V7.20755C33.3613 8.42546 31.325 9.34619 28.6212 9.34619" fill="#F77E23"/>
<path d="M29.2446 6.31628C29.0593 6.39963 28.8583 6.44274 28.6551 6.44274C28.4519 6.44274 28.251 6.39963 28.0657 6.31628L24.2268 4.5625V7.21268C24.2268 8.187 26.1755 9.00544 28.6113 9.00544C31.0471 9.00544 32.9958 8.20649 32.9958 7.21268V4.59173L29.2446 6.31628Z" fill="#F77E23"/>
<path d="M11.9212 5.09342C11.1667 5.8005 10.6551 6.72814 10.4597 7.7436C11.4915 7.72097 12.4894 7.37126 13.3096 6.7449C14.0658 6.03907 14.5777 5.11088 14.7711 4.09473C13.7383 4.11998 12.7396 4.46936 11.9163 5.09342" fill="#F77E23"/>
<path d="M18.571 44.1202C19.1544 44.9472 19.4783 45.9291 19.5015 46.9409C19.5015 46.9409 17.4456 46.2978 16.5785 44.8607C16.324 44.4395 16.1585 43.9706 16.0923 43.4829C16.0261 42.9953 16.0606 42.4992 16.1936 42.0254C17.1167 42.5674 17.9298 43.278 18.5905 44.1202" fill="#F77E23"/>
<path d="M16.9438 48.4754C17.4637 48.4162 17.9641 48.2433 18.4095 47.9688C18.855 47.6943 19.2344 47.325 19.5209 46.8872C18.3354 46.5298 17.1001 46.3653 15.8623 46.4001C14.8391 46.4811 13.8706 46.8952 13.105 47.579C13.105 47.579 15.0829 48.7385 16.9438 48.49" fill="#F77E23"/>
<path d="M15.0097 42.3956C15.397 43.3013 15.5071 44.3015 15.3263 45.2698C15.3263 45.2698 13.5287 44.2955 12.9684 42.7707C12.8103 42.3145 12.7448 41.8313 12.7758 41.3495C12.8067 40.8676 12.9335 40.3968 13.1487 39.9646C13.9226 40.6468 14.5549 41.4744 15.0097 42.4004" fill="#F77E23"/>
<path d="M12.6276 46.3465C13.1349 46.3714 13.6416 46.2859 14.1126 46.0958C14.5837 45.9057 15.0078 45.6156 15.3557 45.2455C14.3098 44.695 13.1782 44.326 12.0089 44.1542C11.0126 44.0622 10.0135 44.2983 9.16382 44.8265C9.16382 44.8265 10.8299 46.288 12.6276 46.3465Z" fill="#F77E23"/>
<path d="M11.9697 40.1303C12.1642 41.0779 12.0778 42.0616 11.7213 42.9608C11.7213 42.9608 10.1965 41.7282 9.94314 40.145C9.87455 39.6736 9.89993 39.1933 10.0178 38.7317C10.1357 38.2702 10.3438 37.8366 10.63 37.4558C11.2531 38.2474 11.7089 39.1573 11.9697 40.1303Z" fill="#F77E23"/>
<path d="M8.94451 43.5209C9.4275 43.6317 9.92874 43.6368 10.4139 43.5359C10.8991 43.435 11.3567 43.2305 11.7555 42.9363C10.8613 42.2243 9.84877 41.6751 8.76426 41.314C7.81729 41.0552 6.8118 41.1116 5.89974 41.4748C5.87538 41.4748 7.23944 43.1701 8.94451 43.5404" fill="#F77E23"/>
<path d="M9.46102 37.4068C9.47581 38.3621 9.21353 39.3012 8.70591 40.1106C8.70591 40.1106 7.45877 38.6491 7.49287 37.0707C7.51003 36.6 7.62 36.1374 7.81647 35.7093C8.01293 35.2813 8.29202 34.8963 8.63771 34.5764C9.10157 35.4542 9.3817 36.4172 9.46102 37.4068Z" fill="#F77E23"/>
<path d="M5.91935 40.179C6.37025 40.365 6.8558 40.4522 7.34323 40.4345C7.83067 40.4169 8.30865 40.2949 8.74491 40.0767C8.00943 39.2291 7.12844 38.5197 6.14345 37.9819C5.26661 37.5661 4.27839 37.4464 3.32764 37.6409C3.32764 37.6409 4.33607 39.5214 5.91935 40.179Z" fill="#F77E23"/>
<path d="M7.50247 34.3281C7.34973 35.2589 6.93002 36.1254 6.2943 36.8223C6.2943 36.8223 5.31997 35.1903 5.6415 33.6509C5.73679 33.1947 5.92255 32.7622 6.18779 32.379C6.45304 31.9957 6.79239 31.6696 7.18581 31.4197C7.49535 32.361 7.60324 33.3569 7.50247 34.3427" fill="#F77E23"/>
<path d="M3.57111 36.3984C3.97646 36.6623 4.4346 36.8343 4.91343 36.9025C5.39226 36.9707 5.88021 36.9333 6.34308 36.7931C5.77349 35.84 5.03759 34.9969 4.17033 34.3036C3.38447 33.7414 2.43749 33.4491 1.47144 33.4706C1.47144 33.4706 2.14372 35.4875 3.57111 36.3936" fill="#F77E23"/>
<path d="M6.11897 30.9716C5.80609 31.8543 5.24226 32.6264 4.49671 33.1931C4.49671 33.1931 3.83417 31.4295 4.38953 29.9729C4.5609 29.5446 4.81587 29.1547 5.13957 28.826C5.46327 28.4972 5.84921 28.2363 6.27486 28.0583C6.41949 29.0343 6.35976 30.0297 6.09948 30.9813" fill="#F77E23"/>
<path d="M1.91977 32.3016C2.27162 32.6296 2.69012 32.8777 3.14665 33.029C3.60319 33.1803 4.08701 33.2313 4.56507 33.1785C4.16919 32.1443 3.59176 31.1891 2.85999 30.3578C2.18655 29.6694 1.31107 29.2138 0.36084 29.0571C0.36084 29.0571 0.677497 31.1568 1.91977 32.3016Z" fill="#F77E23"/>
<path d="M5.32494 27.4347C4.87763 28.2468 4.19947 28.908 3.37628 29.3346C3.37628 29.3346 3.02552 27.4883 3.80986 26.1486C4.04873 25.758 4.36378 25.4196 4.73623 25.1535C5.10868 24.8873 5.53091 24.6989 5.97774 24.5994C5.95519 25.5796 5.73133 26.5446 5.32007 27.4347" fill="#F77E23"/>
<path d="M0.994015 27.9901C1.28102 28.3738 1.64696 28.6914 2.06714 28.9217C2.48733 29.152 2.95201 29.2895 3.42984 29.3249C3.21632 28.2356 2.81051 27.193 2.23141 26.246C1.68983 25.4476 0.90848 24.842 0.000198842 24.5166C0.000198842 24.5166 -0.0387743 26.6406 0.974528 27.9901" fill="#F77E23"/>
<path d="M5.13982 23.8054C4.56963 24.5256 3.7954 25.057 2.91835 25.3302C2.91835 25.3302 2.88425 23.4497 3.89268 22.2659C4.19023 21.9206 4.55577 21.6402 4.96648 21.4424C5.37718 21.2446 5.82425 21.1336 6.27979 21.1162C6.08909 22.0791 5.70635 22.9937 5.15443 23.8054" fill="#F77E23"/>
<path d="M0.804016 23.5764C1.01831 24.0072 1.32284 24.3869 1.69692 24.6895C2.07099 24.9921 2.50584 25.2106 2.9719 25.3302C2.94058 24.2147 2.71983 23.1126 2.3191 22.0711C1.9268 21.188 1.26741 20.4503 0.433772 19.9617C0.433772 19.9617 0.0245533 22.0614 0.804016 23.5764Z" fill="#F77E23"/>
<path d="M5.57816 20.1759C4.8993 20.788 4.0492 21.1773 3.14233 21.2915C3.31153 20.2024 3.82347 19.1956 4.60383 18.4172C4.95492 18.1279 5.36214 17.9145 5.79981 17.7904C6.23749 17.6663 6.69614 17.6343 7.14683 17.6962C6.79058 18.6206 6.25215 19.4638 5.56354 20.1759" fill="#F77E23"/>
<path d="M1.37879 19.1723C1.51329 19.635 1.74434 20.064 2.05672 20.431C2.36909 20.7979 2.75569 21.0945 3.19104 21.3012C3.35837 20.1883 3.33696 19.0552 3.12771 17.9495C2.91042 17.0034 2.39874 16.1506 1.66622 15.5137C1.66622 15.5137 0.886753 17.5354 1.38366 19.1772" fill="#F77E23"/>
<path d="M6.66471 16.6295C5.89316 17.1218 4.98691 17.3603 4.073 17.3116C4.073 17.3116 4.69657 15.4944 6.05576 14.7004C6.45168 14.4734 6.89074 14.3319 7.34466 14.285C7.79858 14.238 8.2573 14.2865 8.69132 14.4276C8.16435 15.2856 7.47613 16.0333 6.66471 16.6295Z" fill="#F77E23"/>
<path d="M2.73796 14.8901C2.78295 15.3709 2.92956 15.8367 3.16807 16.2566C3.40658 16.6766 3.73157 17.041 4.12151 17.3259C4.48633 16.2425 4.67547 15.1077 4.68175 13.9645C4.64782 12.9835 4.30705 12.0379 3.70742 11.2607C3.70742 11.2607 2.53822 13.1509 2.73309 14.8804" fill="#F77E23"/>
<path d="M8.394 13.2777C7.54804 13.6374 6.60933 13.7177 5.7146 13.5067C5.7146 13.5067 6.68893 11.7968 8.1894 11.2317C8.62055 11.069 9.08163 11.0009 9.54139 11.032C10.0012 11.0631 10.4489 11.1927 10.8542 11.4119C10.1627 12.177 9.33716 12.8093 8.41836 13.2777" fill="#F77E23"/>
<path d="M4.90108 10.837C4.84294 11.3235 4.89125 11.8169 5.04266 12.2829C5.19407 12.7489 5.44497 13.1764 5.77798 13.5359C6.34619 12.5093 6.75986 11.4046 7.00563 10.2573C7.1848 9.2767 7.0519 8.26461 6.62565 7.36353C6.62565 7.36353 5.06185 9.06859 4.90108 10.837Z" fill="#F77E23"/>
<path d="M10.8297 10.1988C9.92589 10.418 8.97532 10.3376 8.12109 9.96986C8.12109 9.96986 9.44131 8.41094 11.0782 8.08941C11.5359 7.99341 12.0091 7.99998 12.464 8.10864C12.9189 8.2173 13.344 8.42535 13.7089 8.71786C12.84 9.36641 11.8661 9.86077 10.8297 10.1794" fill="#F77E23"/>
<path d="M7.90692 7.12981C7.73853 7.60021 7.67695 8.1022 7.72667 8.59935C7.77638 9.0965 7.93614 9.57634 8.19435 10.0041C8.98192 9.06304 9.63752 8.01902 10.143 6.90084C10.5459 5.95569 10.6446 4.90859 10.4256 3.90479C10.4256 3.90479 8.4769 5.36628 7.92153 7.12981" fill="#F77E23"/>
<path d="M25.3522 47.6229V47.3014C22.6766 47.4417 20.0003 47.039 17.4845 46.1176C14.9938 45.2144 12.6987 43.8437 10.7226 42.079C6.52801 38.3534 3.91708 33.1647 3.42489 27.5761C2.99132 22.948 3.45412 18.8558 4.7987 15.397C6.13964 11.8188 8.69501 8.82547 12.0185 6.93978L11.8577 6.66211C8.46435 8.58342 5.85767 11.6404 4.49665 15.2947C3.13747 18.7828 2.66492 22.9285 3.09849 27.6102C3.59799 33.2752 6.24138 38.5359 10.4888 42.3177C12.4968 44.1106 14.828 45.5043 17.3578 46.4245C19.9146 47.3584 22.6339 47.7661 25.3522 47.6229Z" fill="#F77E23"/>
<path d="M45.3892 5.09342C46.1424 5.80154 46.6537 6.72871 46.8507 7.7436C45.8084 7.77285 44.7919 7.41685 43.9956 6.74367C43.1992 6.07049 42.679 5.12738 42.5344 4.09473C43.5672 4.11998 44.5659 4.46936 45.3892 5.09342Z" fill="#F77E23"/>
<path d="M38.7396 44.1202C38.1586 44.9484 37.8349 45.9296 37.8091 46.9409C37.8091 46.9409 39.8698 46.2978 40.7321 44.8607C40.9877 44.4399 41.1538 43.971 41.22 43.4832C41.2862 42.9953 41.2511 42.4991 41.1169 42.0254C40.1938 42.5674 39.3808 43.278 38.7201 44.1202" fill="#F77E23"/>
<path d="M40.3667 48.4754C39.8468 48.4162 39.3464 48.2433 38.901 47.9688C38.4555 47.6943 38.0761 47.325 37.7896 46.8872C38.9751 46.5298 40.2104 46.3653 41.4482 46.4001C42.4714 46.4811 43.4399 46.8952 44.2055 47.579C44.2299 47.579 42.2276 48.7385 40.3667 48.49" fill="#F77E23"/>
<path d="M42.3006 42.3956C41.9161 43.302 41.806 44.3014 41.984 45.2698C41.984 45.2698 43.7816 44.2955 44.3418 42.7707C44.5013 42.3147 44.5675 41.8314 44.5366 41.3493C44.5056 40.8673 44.3781 40.3964 44.1616 39.9646C43.3876 40.6468 42.7553 41.4744 42.3006 42.4004" fill="#F77E23"/>
<path d="M44.683 46.3465C44.1756 46.3714 43.6689 46.2859 43.1979 46.0958C42.7269 45.9057 42.3027 45.6156 41.9548 45.2455C43.001 44.6959 44.1326 44.3269 45.3017 44.1542C46.2979 44.0622 47.297 44.2983 48.1467 44.8265C48.1711 44.8265 46.4855 46.288 44.683 46.3465Z" fill="#F77E23"/>
<path d="M45.3405 40.1303C45.1489 41.078 45.2352 42.0609 45.5889 42.9608C45.5889 42.9608 47.1138 41.7282 47.372 40.145C47.4404 39.6732 47.4145 39.1926 47.2958 38.731C47.177 38.2694 46.9678 37.8359 46.6802 37.4558C46.0571 38.2474 45.6014 39.1573 45.3405 40.1303Z" fill="#F77E23"/>
<path d="M48.3659 43.5209C47.8815 43.6289 47.3795 43.6309 46.8943 43.5266C46.409 43.4224 45.9521 43.2143 45.5549 42.9168C46.4491 42.2047 47.4616 41.6556 48.5461 41.2945C49.4948 41.036 50.5017 41.0924 51.4155 41.4553C51.4155 41.4553 50.0709 43.1506 48.3659 43.5209Z" fill="#F77E23"/>
<path d="M47.8544 37.4068C47.8424 38.3618 48.1044 39.3001 48.6095 40.1106C48.6095 40.1106 49.8566 38.6491 49.8225 37.0707C49.8054 36.6 49.6954 36.1374 49.499 35.7093C49.3025 35.2813 49.0234 34.8963 48.6777 34.5764C48.2139 35.4542 47.9337 36.4172 47.8544 37.4068Z" fill="#F77E23"/>
<path d="M51.3912 40.179C50.9403 40.365 50.4548 40.4522 49.9673 40.4345C49.4799 40.4169 49.0019 40.2949 48.5657 40.0767C49.3011 39.2291 50.1821 38.5197 51.1671 37.9819C52.044 37.5661 53.0322 37.4464 53.9829 37.6409C53.9829 37.6409 52.9745 39.5214 51.3912 40.179Z" fill="#F77E23"/>
<path d="M49.803 34.3281C49.9557 35.2589 50.3754 36.1254 51.0111 36.8223C51.0111 36.8223 51.9855 35.1903 51.6639 33.6509C51.5686 33.1947 51.3829 32.7622 51.1176 32.379C50.8524 31.9957 50.513 31.6696 50.1196 31.4197C49.8101 32.361 49.7022 33.3569 49.803 34.3427" fill="#F77E23"/>
<path d="M53.7393 36.3984C53.3339 36.6623 52.8758 36.8343 52.3969 36.9025C51.9181 36.9707 51.4302 36.9333 50.9673 36.7931C51.5369 35.84 52.2728 34.9969 53.14 34.3036C53.9259 33.7414 54.8729 33.4491 55.8389 33.4706C55.8389 33.4706 55.1666 35.4875 53.7393 36.3936" fill="#F77E23"/>
<path d="M51.1915 30.9716C51.4983 31.8536 52.0552 32.6272 52.7943 33.1979C52.7943 33.1979 53.4568 31.4344 52.9015 29.9778C52.7301 29.5494 52.4751 29.1595 52.1514 28.8308C51.8277 28.5021 51.4418 28.2412 51.0161 28.0632C50.8715 29.0392 50.9312 30.0346 51.1915 30.9862" fill="#F77E23"/>
<path d="M55.3906 32.3014C55.0378 32.6346 54.6167 32.8869 54.1565 33.0409C53.6963 33.1948 53.2081 33.2467 52.7258 33.1929C53.1217 32.1587 53.6991 31.2035 54.4309 30.3723C55.1043 29.6838 55.9798 29.2282 56.9301 29.0715C56.9301 29.0715 56.6134 31.1712 55.3711 32.3161" fill="#F77E23"/>
<path d="M51.9856 27.4347C52.4329 28.2468 53.111 28.908 53.9342 29.3346C53.9342 29.3346 54.285 27.4883 53.5007 26.1486C53.2623 25.7586 52.948 25.4205 52.5765 25.1543C52.2049 24.8882 51.7836 24.6995 51.3376 24.5994C51.3544 25.5797 51.5768 26.5457 51.9905 27.4347" fill="#F77E23"/>
<path d="M56.3164 27.9901C56.0294 28.3738 55.6635 28.6914 55.2433 28.9217C54.8231 29.152 54.3584 29.2895 53.8806 29.3249C54.0941 28.2356 54.4999 27.193 55.079 26.246C55.6206 25.4476 56.402 24.842 57.3103 24.5166C57.3103 24.5166 57.3492 26.6406 56.3359 27.9901" fill="#F77E23"/>
<path d="M52.1756 23.8054C52.7434 24.5259 53.5162 25.0575 54.3922 25.3302C54.3922 25.3302 54.4263 23.4497 53.4179 22.2659C53.1203 21.9206 52.7548 21.6402 52.3441 21.4424C51.9334 21.2446 51.4863 21.1336 51.0308 21.1162C51.2229 22.0794 51.6073 22.9941 52.161 23.8054" fill="#F77E23"/>
<path d="M56.5065 23.5764C56.2922 24.0072 55.9877 24.3869 55.6136 24.6895C55.2395 24.9921 54.8047 25.2106 54.3386 25.3302C54.3699 24.2147 54.5907 23.1126 54.9914 22.0711C55.3837 21.188 56.0431 20.4503 56.8768 19.9617C56.8768 19.9617 57.286 22.0614 56.5065 23.5764Z" fill="#F77E23"/>
<path d="M51.7515 20.1759C52.4304 20.788 53.2805 21.1773 54.1874 21.2915C54.0182 20.2024 53.5062 19.1956 52.7259 18.4172C52.3748 18.1279 51.9675 17.9145 51.5299 17.7904C51.0922 17.6663 50.6335 17.6343 50.1829 17.6962C50.5391 18.6206 51.0775 19.4638 51.7661 20.1759" fill="#F77E23"/>
<path d="M55.9316 19.1723C55.7971 19.635 55.5661 20.064 55.2537 20.431C54.9413 20.7979 54.5547 21.0945 54.1194 21.3012C53.9521 20.1883 53.9735 19.0552 54.1827 17.9495C54.4 17.0034 54.9117 16.1506 55.6442 15.5137C55.6442 15.5137 56.4237 17.5354 55.9268 19.1772" fill="#F77E23"/>
<path d="M50.646 16.6295C51.4175 17.1218 52.3238 17.3603 53.2377 17.3116C53.2377 17.3116 52.6141 15.4944 51.2549 14.7004C50.859 14.4734 50.42 14.3319 49.966 14.285C49.5121 14.238 49.0534 14.2865 48.6194 14.4276C49.1464 15.2856 49.8346 16.0333 50.646 16.6295Z" fill="#F77E23"/>
<path d="M54.5724 14.8901C54.5299 15.3716 54.3844 15.8383 54.1457 16.2585C53.9069 16.6788 53.5806 17.0428 53.1889 17.3259C52.8265 16.2419 52.6374 15.1075 52.6287 13.9645C52.6626 12.9835 53.0034 12.0379 53.603 11.2607C53.603 11.2607 54.7722 13.1509 54.5773 14.8804" fill="#F77E23"/>
<path d="M48.8967 13.2777C49.7427 13.6374 50.6814 13.7177 51.5761 13.5067C51.6005 13.5067 50.6018 11.7968 49.1013 11.2317C48.6702 11.069 48.2091 11.0009 47.7493 11.032C47.2896 11.0631 46.8418 11.1927 46.4365 11.4119C47.1281 12.177 47.9535 12.8093 48.8723 13.2777" fill="#F77E23"/>
<path d="M52.4094 10.837C52.4676 11.3235 52.4193 11.8169 52.2679 12.2829C52.1165 12.7489 51.8656 13.1764 51.5326 13.5359C50.9643 12.5093 50.5507 11.4046 50.3049 10.2573C50.1257 9.2767 50.2586 8.26461 50.6849 7.36353C50.6849 7.36353 52.2487 9.06859 52.4094 10.837Z" fill="#F77E23"/>
<path d="M46.4612 10.1989C47.3649 10.4191 48.3159 10.3388 49.1698 9.96993C49.1942 9.96993 47.8496 8.41101 46.2127 8.08949C45.7559 7.9925 45.2831 7.99859 44.8289 8.1073C44.3747 8.21601 43.9504 8.42462 43.5869 8.71793C44.4537 9.36698 45.4261 9.86141 46.4612 10.1794" fill="#F77E23"/>
<path d="M49.4181 7.12981C49.5865 7.60021 49.6481 8.1022 49.5983 8.59935C49.5486 9.0965 49.3889 9.57634 49.1307 10.0041C48.3431 9.06304 47.6875 8.01902 47.182 6.90084C46.7791 5.95569 46.6804 4.90859 46.8995 3.90479C46.8995 3.90479 48.8481 5.36628 49.4035 7.12981" fill="#F77E23"/>
<path d="M31.9582 47.6229V47.3014C34.6338 47.4417 37.3101 47.039 39.8259 46.1176C42.3166 45.2144 44.6117 43.8437 46.5878 42.079C50.7745 38.3491 53.3796 33.1617 53.8709 27.5761C54.2996 22.948 53.8368 18.8558 52.4922 15.397C51.1512 11.8188 48.5959 8.82547 45.2724 6.93978L45.4332 6.66211C48.8239 8.57979 51.4303 11.6312 52.7942 15.2801C54.1534 18.7681 54.626 22.9139 54.1924 27.5956C53.6929 33.2606 51.0495 38.5213 46.8021 42.3031C44.7941 44.0959 42.4629 45.4897 39.9331 46.4099C37.3763 47.3438 34.657 47.7515 31.9387 47.6083" fill="#F77E23"/>
<path d="M27.4469 41.197L14.3568 35.5167C14.2803 35.4842 14.215 35.4299 14.1691 35.3606C14.1232 35.2914 14.0987 35.2101 14.0986 35.127V15.3091C14.0984 15.2379 14.116 15.1678 14.1496 15.1051C14.1833 15.0423 14.2321 14.989 14.2916 14.9498C14.351 14.9107 14.4193 14.8869 14.4902 14.8808C14.5612 14.8746 14.6325 14.8862 14.6978 14.9145L27.788 20.5949C27.8645 20.6273 27.9297 20.6816 27.9756 20.7509C28.0216 20.8202 28.0461 20.9015 28.0462 20.9846V40.8024C28.0464 40.8736 28.0288 40.9438 27.9952 41.0065C27.9615 41.0692 27.9127 41.1226 27.8532 41.1617C27.7938 41.2009 27.7255 41.2246 27.6546 41.2308C27.5836 41.237 27.5123 41.2254 27.4469 41.197Z" fill="#F77E23"/>
<path d="M28.0462 19.8836L17.5429 12.888C17.5106 12.8669 17.4731 12.855 17.4344 12.8534C17.3958 12.8519 17.3575 12.8609 17.3236 12.8793C17.2896 12.8978 17.2613 12.9251 17.2416 12.9584C17.2219 12.9916 17.2116 13.0296 17.2117 13.0682V15.0461C17.2118 15.0873 17.2238 15.1276 17.2463 15.1622C17.2688 15.1968 17.3007 15.2241 17.3383 15.241L28.0462 19.8836Z" fill="#F77E23"/>
<path d="M28.0463 18.6463L20.3881 11.3389C20.3581 11.3091 20.32 11.2888 20.2786 11.2807C20.2371 11.2725 20.1942 11.2767 20.1552 11.2929C20.1161 11.309 20.0827 11.3363 20.0592 11.3714C20.0356 11.4064 20.0229 11.4476 20.0227 11.4899V13.268C20.023 13.3037 20.0321 13.3388 20.0491 13.3702C20.066 13.4017 20.0904 13.4284 20.1201 13.4483L28.0463 18.6463Z" fill="#F77E23"/>
<path d="M29.8634 41.197L42.9535 35.5167C43.03 35.4842 43.0953 35.4299 43.1412 35.3606C43.1871 35.2914 43.2116 35.2101 43.2117 35.127V15.3091C43.2119 15.2379 43.1944 15.1678 43.1607 15.1051C43.127 15.0423 43.0782 14.989 43.0188 14.9498C42.9593 14.9107 42.891 14.8869 42.8201 14.8808C42.7491 14.8746 42.6778 14.8862 42.6125 14.9145L29.5224 20.5949C29.4458 20.6273 29.3806 20.6816 29.3347 20.7509C29.2888 20.8202 29.2642 20.9015 29.2642 20.9846V40.8024C29.264 40.8736 29.2815 40.9438 29.3152 41.0065C29.3488 41.0692 29.3976 41.1226 29.4571 41.1617C29.5165 41.2009 29.5848 41.2246 29.6558 41.2308C29.7267 41.237 29.798 41.2254 29.8634 41.197Z" fill="#F77E23"/>
<path d="M29.2642 19.8836L39.7674 12.888C39.7998 12.8669 39.8373 12.855 39.8759 12.8534C39.9145 12.8519 39.9528 12.8609 39.9868 12.8793C40.0207 12.8978 40.0491 12.9251 40.0688 12.9584C40.0885 12.9916 40.0988 13.0296 40.0987 13.0682V15.0461C40.0986 15.0873 40.0865 15.1276 40.0641 15.1622C40.0416 15.1968 40.0097 15.2241 39.972 15.241L29.2642 19.8836Z" fill="#F77E23"/>
<path d="M29.2642 18.6463L36.9224 11.3389C36.9524 11.3091 36.9905 11.2888 37.0319 11.2807C37.0733 11.2725 37.1163 11.2767 37.1553 11.2929C37.1943 11.309 37.2277 11.3363 37.2513 11.3714C37.2749 11.4064 37.2875 11.4476 37.2878 11.4899V13.268C37.2883 13.3039 37.2796 13.3393 37.2626 13.3709C37.2455 13.4024 37.2206 13.4291 37.1903 13.4483L29.2642 18.6463Z" fill="#F77E23"/>
</svg>
