<svg width="69" height="72" viewBox="0 0 69 72" fill="none" xmlns="http://www.w3.org/2000/svg">
<path d="M45 21.7125C44.9168 21.4628 44.7576 21.2454 44.5446 21.0908C44.3317 20.9361 44.0757 20.8519 43.8125 20.85H37.6L35.6875 14.95C35.6053 14.6999 35.4462 14.4822 35.233 14.3278C35.0198 14.1734 34.7632 14.0903 34.5 14.0903C34.2367 14.0903 33.9802 14.1734 33.767 14.3278C33.5537 14.4822 33.3947 14.6999 33.3125 14.95L31.4 20.85H25.1875C24.9243 20.8519 24.6683 20.9361 24.4554 21.0908C24.2424 21.2454 24.0832 21.4628 24 21.7125C23.9169 21.9646 23.917 22.2368 24.0003 22.4888C24.0835 22.7409 24.2456 22.9595 24.4625 23.1125L29.475 26.7625L27.5625 32.6625C27.4799 32.9135 27.479 33.1842 27.5598 33.4357C27.6407 33.6872 27.7992 33.9067 28.0125 34.0625C28.2282 34.215 28.4858 34.2969 28.75 34.2969C29.0141 34.2969 29.2718 34.215 29.4875 34.0625L34.5 30.4125L39.5125 34.0625C39.73 34.2117 39.9863 34.2942 40.25 34.3C40.5143 34.298 40.7717 34.2151 40.9875 34.0625C41.2008 33.9067 41.3593 33.6872 41.4401 33.4357C41.521 33.1842 41.5201 32.9135 41.4375 32.6625L39.525 26.7625L44.5375 23.1125C44.7544 22.9595 44.9164 22.7409 44.9997 22.4888C45.083 22.2368 45.0831 21.9646 45 21.7125ZM37.325 25.275C37.1103 25.43 36.9501 25.6487 36.867 25.9001C36.784 26.1515 36.7824 26.4227 36.8625 26.675L37.875 29.775L35.2375 27.85C35.0226 27.6956 34.7646 27.6125 34.5 27.6125C34.2353 27.6125 33.9774 27.6956 33.7625 27.85L31.125 29.775L32.1375 26.675C32.2176 26.4227 32.216 26.1515 32.1329 25.9001C32.0499 25.6487 31.8896 25.43 31.675 25.275L29.0375 23.35H32.3C32.564 23.3516 32.8216 23.2687 33.0352 23.1136C33.2488 22.9584 33.4073 22.7391 33.4875 22.4875L34.5 19.3875L35.5125 22.4875C35.5927 22.7391 35.7511 22.9584 35.9647 23.1136C36.1784 23.2687 36.436 23.3516 36.7 23.35H39.9625L37.325 25.275Z" fill="#09B451"/>
<path d="M34.4999 8.82495C30.2325 8.82377 26.1296 10.4711 23.0479 13.4231C19.9662 16.375 18.1439 20.4033 17.9617 24.6668C17.7794 28.9303 19.2511 33.0995 22.0696 36.3036C24.8881 39.5078 28.8354 41.4994 33.0874 41.8624C33.5624 41.8999 34.0249 41.925 34.4999 41.925C34.9249 41.925 35.3624 41.8999 35.7874 41.8624H35.9124V41.85C40.1627 41.487 44.1085 39.4961 46.9259 36.2931C49.7433 33.09 51.2144 28.9225 51.0321 24.6606C50.8498 20.3987 49.0282 16.3719 45.9476 13.4212C42.8671 10.4704 38.7657 8.8237 34.4999 8.82495ZM46.7624 32.225C46.7591 32.225 46.7559 32.2263 46.7535 32.2286C46.7512 32.231 46.7499 32.2341 46.7499 32.2374C45.6318 34.2413 44.0379 35.9394 42.1087 37.1819C40.1795 38.4244 37.9743 39.1733 35.6874 39.3624L35.6749 39.375H35.6624C34.8807 39.4519 34.0932 39.4477 33.3124 39.3624C30.2908 39.105 27.4337 37.8764 25.1682 35.8605C22.9027 33.8445 21.3506 31.1495 20.7439 28.1783C20.1371 25.207 20.5083 22.1192 21.8021 19.3765C23.0958 16.6337 25.2425 14.3833 27.9212 12.9618C30.5999 11.5403 33.6668 11.024 36.6634 11.49C39.6599 11.9561 42.4251 13.3795 44.5455 15.5474C46.666 17.7154 48.0278 20.5114 48.4274 23.5175C48.827 26.5236 48.2429 29.5783 46.7624 32.225Z" fill="#09B451"/>
<path d="M68.1 61.9125L63.4 54.625C60.0375 49.4375 56.6791 44.2417 53.325 39.0375C53.5875 38.9375 53.8875 38.825 54.1875 38.725C54.8649 38.5893 55.5088 38.3206 56.0816 37.9344C56.6545 37.5482 57.1451 37.0521 57.525 36.475C57.7374 35.8224 57.8191 35.1344 57.7655 34.4502C57.7119 33.766 57.524 33.0991 57.2125 32.4875C56.9187 31.8478 56.7612 31.1539 56.75 30.45C57.0596 29.8484 57.4893 29.3166 58.0125 28.8875C58.5689 28.4661 59.0365 27.9389 59.3883 27.336C59.7402 26.7332 59.9693 26.0667 60.0625 25.375C59.9707 24.6846 59.7421 24.0195 59.3901 23.4185C59.0381 22.8175 58.5697 22.2928 58.0125 21.875C57.4912 21.4391 57.062 20.9037 56.75 20.3C56.7612 19.5961 56.9187 18.9023 57.2125 18.2625C57.5237 17.6532 57.7115 16.9883 57.7652 16.3062C57.8188 15.624 57.7372 14.938 57.525 14.2875C57.144 13.7114 56.6531 13.2161 56.0804 12.83C55.5077 12.4439 54.8644 12.1746 54.1875 12.0375C53.5143 11.8672 52.8813 11.5656 52.325 11.15C52.0483 10.5139 51.8956 9.83086 51.875 9.13751C51.8938 8.44862 51.7765 7.76278 51.5299 7.11929C51.2832 6.4758 50.912 5.88731 50.4375 5.38751C49.2427 4.68417 47.8183 4.48195 46.475 4.82501C45.7947 4.96545 45.0928 4.96545 44.4125 4.82501C43.8889 4.38641 43.4594 3.84641 43.15 3.23751C42.8657 2.59963 42.4574 2.02467 41.9488 1.54611C41.4402 1.06755 40.8415 0.69495 40.1875 0.450013C39.5102 0.39179 38.8282 0.467819 38.1804 0.673741C37.5326 0.879663 36.9318 1.21143 36.4125 1.65001C35.8447 2.08275 35.1936 2.39342 34.5 2.56251C33.8064 2.39342 33.1553 2.08275 32.5875 1.65001C32.0701 1.21239 31.4714 0.881141 30.8258 0.675226C30.1801 0.469311 29.5002 0.392779 28.825 0.450013C28.1683 0.692795 27.5668 1.06448 27.0559 1.54319C26.5449 2.02191 26.1349 2.59798 25.85 3.23751C25.54 3.84263 25.1155 4.38178 24.6 4.82501C23.9154 4.96524 23.2095 4.96524 22.525 4.82501C21.1858 4.4818 19.7651 4.68411 18.575 5.38751C18.0952 5.8867 17.7198 6.47659 17.4708 7.12265C17.2219 7.76871 17.1043 8.45795 17.125 9.15001C17.1122 9.84167 16.9547 10.523 16.6625 11.15C16.1175 11.5663 15.4917 11.8643 14.825 12.025C13.4546 12.3021 12.2499 13.1112 11.475 14.275C11.2626 14.9276 11.1808 15.6157 11.2345 16.2999C11.2881 16.9841 11.476 17.651 11.7875 18.2625C12.0813 18.9023 12.2388 19.5961 12.25 20.3C11.938 20.9037 11.5088 21.4391 10.9875 21.875C10.4302 22.2928 9.9619 22.8175 9.6099 23.4185C9.25791 24.0195 9.0293 24.6846 8.93748 25.375C9.03068 26.0667 9.25979 26.7332 9.61162 27.336C9.96345 27.9389 10.431 28.4661 10.9875 28.8875C11.5107 29.3166 11.9404 29.8484 12.25 30.45C12.2388 31.1539 12.0813 31.8478 11.7875 32.4875C11.4762 33.0969 11.2884 33.7617 11.2348 34.4438C11.1812 35.126 11.2628 35.812 11.475 36.4625C11.8529 37.0414 12.3429 37.5387 12.9161 37.9251C13.4893 38.3116 14.1341 38.5793 14.8125 38.7125C15.1 38.825 15.4 38.925 15.675 39.0375C12.3125 44.2375 8.95414 49.4334 5.59998 54.625L0.899976 61.9125C0.764405 62.1167 0.693135 62.3568 0.695363 62.6019C0.697591 62.847 0.773215 63.0858 0.912476 63.2875C1.04828 63.4892 1.24036 63.6464 1.46483 63.7398C1.68929 63.8331 1.93624 63.8584 2.17498 63.8125L10.7125 62.225L12.7875 70.675C12.8477 70.9111 12.9757 71.1244 13.1555 71.2888C13.3354 71.4531 13.5594 71.5613 13.8 71.6C13.8657 71.6145 13.9327 71.6229 14 71.625C14.2095 71.6264 14.4158 71.5743 14.5996 71.4737C14.7833 71.3731 14.9383 71.2273 15.05 71.05L28.525 50.1875C28.625 50.2125 28.7125 50.275 28.8125 50.3C29.0173 50.3489 29.227 50.374 29.4375 50.375C30.5849 50.2485 31.6751 49.8073 32.5875 49.1C33.1553 48.6673 33.8064 48.3566 34.5 48.1875C35.1936 48.3566 35.8447 48.6673 36.4125 49.1C36.9321 49.5421 37.5348 49.8759 38.1852 50.082C38.8356 50.288 39.5206 50.3622 40.2 50.3C40.3 50.275 40.3875 50.2125 40.475 50.1875L53.95 71.05C54.0616 71.2273 54.2167 71.3731 54.4004 71.4737C54.5841 71.5743 54.7905 71.6264 55 71.625C55.0673 71.6229 55.1342 71.6145 55.2 71.6C55.4405 71.5613 55.6645 71.4531 55.8444 71.2888C56.0243 71.1244 56.1522 70.9111 56.2125 70.675L58.2875 62.225L66.825 63.8125C67.0637 63.8571 67.3102 63.8312 67.5344 63.7379C67.7586 63.6447 67.9508 63.4882 68.0875 63.2875C68.2267 63.0858 68.3024 62.847 68.3046 62.6019C68.3068 62.3568 68.2356 62.1167 68.1 61.9125ZM14.525 67.25L12.8625 60.4875C12.7878 60.1773 12.5973 59.9074 12.33 59.7331C12.0628 59.5588 11.739 59.4933 11.425 59.55L4.57498 60.825L7.69998 55.9875C10.825 51.1375 13.9583 46.2875 17.1 41.4375C17.1136 41.495 17.1219 41.5536 17.125 41.6125C17.1062 42.3014 17.2234 42.9872 17.4701 43.6307C17.7168 44.2742 18.088 44.8627 18.5625 45.3625C19.7575 46.0652 21.1816 46.2674 22.525 45.925C23.2053 45.7846 23.9072 45.7846 24.5875 45.925C25.114 46.3607 25.544 46.9014 25.85 47.5125C26.0875 47.875 26.325 48.2375 26.575 48.5875L14.525 67.25ZM40 47.6125C39.899 47.7272 39.7697 47.8134 39.625 47.8625C39.275 47.9375 38.35 47.375 37.75 46.9875C36.8101 46.2577 35.6839 45.8072 34.5 45.6875C33.3161 45.8072 32.1898 46.2577 31.25 46.9875C30.65 47.375 29.725 47.95 29.3875 47.875C29.2342 47.8164 29.0971 47.7221 28.9875 47.6C28.6004 47.1668 28.2609 46.6933 27.975 46.1875C27.4577 45.1558 26.6663 44.2865 25.6875 43.675C25.1192 43.4163 24.499 43.2923 23.875 43.3125C23.3314 43.3231 22.7888 43.3648 22.25 43.4375C21.475 43.525 20.425 43.65 20.125 43.4125C19.825 43.175 19.7 42.1125 19.6125 41.3375C19.5972 40.167 19.2552 39.024 18.625 38.0375C18.5255 37.9127 18.4123 37.7995 18.2875 37.7C18.2398 37.6595 18.1897 37.622 18.1375 37.5875L18.125 37.575H18.1125C17.3652 37.0285 16.5273 36.6181 15.6375 36.3625C14.9 36.1 13.9 35.75 13.725 35.375C13.55 35.025 13.9 34.0375 14.15 33.3125C14.6507 32.2495 14.8372 31.0655 14.6875 29.9C14.3204 28.8052 13.6482 27.8381 12.75 27.1125C12.2 26.5625 11.4375 25.8 11.4375 25.375C11.4375 24.95 12.2 24.1875 12.75 23.6375C13.6482 22.9119 14.3204 21.9448 14.6875 20.85C14.8372 19.6845 14.6507 18.5005 14.15 17.4375C13.9 16.7125 13.55 15.725 13.725 15.3625C13.9 15 14.9125 14.65 15.65 14.3875C16.7768 14.1226 17.8046 13.5415 18.6125 12.7125C19.252 11.7342 19.599 10.5937 19.6125 9.42501C19.7 8.65001 19.8125 7.60001 20.125 7.35001C20.4375 7.10001 21.475 7.22501 22.25 7.31251C23.3955 7.55653 24.5864 7.47425 25.6875 7.07501C26.6692 6.46708 27.4615 5.59684 27.975 4.56251C28.3875 3.88751 28.9625 2.97501 29.375 2.88751C29.725 2.80001 30.65 3.38751 31.25 3.76251C32.1898 4.4923 33.3161 4.94282 34.5 5.06251C35.6839 4.94282 36.8101 4.4923 37.75 3.76251C38.35 3.38751 39.2625 2.81251 39.625 2.88751C40.0375 2.97501 40.6125 3.88751 41.025 4.56251C41.5384 5.59684 42.3307 6.46708 43.3125 7.07501C44.4135 7.47425 45.6045 7.55653 46.75 7.31251C47.525 7.22501 48.575 7.10001 48.875 7.33751C49.175 7.57501 49.3 8.63751 49.3875 9.41251C49.4027 10.583 49.7447 11.726 50.375 12.7125C51.1949 13.5414 52.2293 14.1257 53.3625 14.4C54.1 14.65 55.1 15 55.275 15.375C55.45 15.725 55.1 16.7125 54.85 17.4375C54.3493 18.5005 54.1628 19.6845 54.3125 20.85C54.6796 21.9448 55.3518 22.9119 56.25 23.6375C56.8 24.1875 57.5625 24.95 57.5625 25.375C57.5625 25.8 56.8 26.5625 56.25 27.1125C55.3518 27.8381 54.6796 28.8052 54.3125 29.9C54.1628 31.0655 54.3493 32.2495 54.85 33.3125C55.1 34.0375 55.45 35.025 55.275 35.3875C55.1 35.75 54.0875 36.1125 53.3625 36.3625C52.4264 36.6183 51.5481 37.0511 50.775 37.6375C50.6364 37.7614 50.5069 37.8951 50.3875 38.0375C49.7479 39.0158 49.401 40.1563 49.3875 41.325C49.3 42.1 49.1875 43.15 48.875 43.4C48.5625 43.65 47.525 43.525 46.75 43.4375C45.6049 43.1872 44.4122 43.2696 43.3125 43.675C42.3337 44.2865 41.5422 45.1558 41.025 46.1875C40.7361 46.6983 40.3924 47.1762 40 47.6125ZM57.575 59.55C57.261 59.4933 56.9372 59.5588 56.6699 59.7331C56.4027 59.9074 56.2122 60.1773 56.1375 60.4875L54.475 67.25L42.425 48.5875C42.675 48.2375 42.9125 47.875 43.15 47.5125C43.4563 46.9051 43.8814 46.3653 44.4 45.925C45.0845 45.7848 45.7904 45.7848 46.475 45.925C47.8142 46.2682 49.2348 46.0659 50.425 45.3625C50.9037 44.8651 51.2784 44.2773 51.5274 43.6334C51.7763 42.9896 51.8945 42.3026 51.875 41.6125C51.8772 41.5535 51.8855 41.4948 51.9 41.4375C55.0375 46.2875 58.1708 51.1375 61.3 55.9875L64.425 60.825L57.575 59.55Z" fill="#09B451"/>
</svg>
