<svg width="59" height="80" viewBox="0 0 59 80" fill="none" xmlns="http://www.w3.org/2000/svg">
<path d="M47.7684 69.5286C48.3666 69.6241 48.9775 69.4777 49.4675 69.1182C49.9511 68.7682 50.2884 68.2273 50.3775 67.6259L50.9152 64.0528C51.0234 63.3337 51.472 62.7228 52.1211 62.3951L55.357 60.7787C55.9042 60.5019 56.3147 60.0278 56.4992 59.4519C56.6901 58.8696 56.6297 58.246 56.3561 57.7051L54.6888 54.4819C54.3611 53.8519 54.3611 53.0851 54.6888 52.4487L56.3561 49.2288C56.6297 48.6879 56.687 48.0642 56.4992 47.482C56.3115 46.9029 55.9011 46.432 55.357 46.1551L52.1211 44.5388C51.472 44.2111 51.0234 43.6002 50.9152 42.8811L50.3775 39.3079C50.2884 38.7066 49.9511 38.1688 49.4675 37.8188C48.9775 37.4561 48.3666 37.3097 47.7684 37.4084L44.1889 38.0066C43.4793 38.1243 42.7602 37.8888 42.2511 37.3766L39.7089 34.7929C39.2793 34.3634 38.7034 34.1216 38.0925 34.1216C37.4912 34.1216 36.9025 34.3666 36.4762 34.7929L33.9339 37.3766C33.428 37.892 32.7057 38.1243 31.9962 38.0066L28.423 37.4179C27.8249 37.3193 27.214 37.4657 26.7208 37.8284C26.234 38.1784 25.8999 38.7161 25.8108 39.3175L25.2762 42.8906C25.1649 43.6097 24.7194 44.2206 24.0703 44.5483L20.8313 46.1647C20.2935 46.4415 19.8767 46.9124 19.6922 47.4915C19.5045 48.0738 19.5585 48.6974 19.8322 49.2383L21.4994 52.4583C21.8304 53.0915 21.8304 53.8583 21.4994 54.4915L19.8322 57.7146C19.5585 58.2555 19.5045 58.8792 19.6922 59.4614C19.8799 60.0373 20.2904 60.5114 20.8313 60.7882L24.0703 62.4046C24.7194 62.7323 25.1649 63.3432 25.2762 64.0623L25.8108 67.6355C25.8999 68.2337 26.234 68.7746 26.7208 69.1277C27.2108 69.4873 27.8217 69.6336 28.423 69.5382L31.9962 68.9496C32.7057 68.8255 33.428 69.0641 33.9339 69.5764L36.4762 72.1536C36.9057 72.5927 37.488 72.8345 38.0925 72.8345C38.7003 72.8345 39.2825 72.5927 39.7089 72.1536L42.2511 69.5764C42.7602 69.0641 43.4825 68.8255 44.1889 68.9496L47.7684 69.5286ZM38.0893 66.9196C30.4848 66.9196 24.3026 60.7373 24.3026 53.136C24.3026 45.5347 30.488 39.3461 38.0893 39.3461C45.6939 39.3461 51.8761 45.5379 51.8761 53.136C51.8761 60.7342 45.697 66.9196 38.0893 66.9196Z" fill="#A91414"/>
<path d="M38.0925 41.3347C31.5985 41.3347 26.3103 46.6165 26.3103 53.1137C26.3103 59.611 31.6016 64.8928 38.0925 64.8928C44.5929 64.8928 49.8747 59.611 49.8747 53.1137C49.8747 46.6165 44.5929 41.3347 38.0925 41.3347Z" fill="#A91414"/>
<path d="M58.6245 72.1091L52.2132 65.6946L51.8887 67.8582C51.7359 68.8541 51.1823 69.7737 50.3646 70.3623C49.5532 70.9541 48.5382 71.2055 47.5264 71.04L43.9437 70.4546C43.6478 70.4355 43.4696 70.5182 43.3392 70.6518L42.7283 71.2659L51.1028 79.6372C51.4273 79.9618 51.895 80.0763 52.3278 79.9459C52.7605 79.809 53.0787 79.4495 53.1678 79.0009L53.9218 74.9377L57.9977 74.1741C58.4432 74.0914 58.8027 73.77 58.9332 73.3341C59.0668 72.8982 58.9459 72.4241 58.6245 72.1091Z" fill="#A91414"/>
<path d="M32.3558 70.4386L28.6649 71.04C27.6308 71.1991 26.6285 70.9509 25.814 70.3527C25.0026 69.7673 24.449 68.8509 24.2963 67.8487L23.9717 65.6946L17.5636 72.1091C17.2454 72.4273 17.1277 72.8982 17.2581 73.3309C17.395 73.7668 17.7577 74.0818 18.1968 74.1709L22.2695 74.9313L23.0331 79.0009C23.1158 79.4495 23.4372 79.809 23.8699 79.9459C24.2995 80.0763 24.7704 79.9618 25.0886 79.6404L33.4599 71.2659L32.849 70.6486C32.7153 70.5118 32.5371 70.4386 32.3558 70.4386Z" fill="#A91414"/>
<path d="M41.7452 13.4176H11.7249C10.6431 13.4176 9.76808 14.2926 9.76808 15.3744C9.76489 16.4626 10.6399 17.3344 11.7249 17.3344H41.7452C42.8238 17.3344 43.702 16.4626 43.702 15.3808C43.702 14.299 42.8206 13.4176 41.7452 13.4176Z" fill="#A91414"/>
<path d="M41.7452 23.453H11.7249C10.6431 23.453 9.76808 24.328 9.76808 25.4034C9.76489 26.4853 10.6399 27.3634 11.7249 27.3634H41.7452C42.8238 27.3634 43.702 26.4916 43.702 25.4066C43.702 24.328 42.8206 23.453 41.7452 23.453Z" fill="#A91414"/>
<path d="M20.9108 64.3233L19.4312 63.5851C19.0526 63.3942 18.709 63.1492 18.3908 62.8755H5.75267C4.88722 62.8755 4.18404 62.1692 4.18404 61.3101V5.73997C4.18404 4.87134 4.88722 4.16816 5.75267 4.16816H47.8097C48.672 4.16816 49.3783 4.87134 49.3783 5.73997V34.3984C50.0783 34.5639 50.7465 34.8693 51.332 35.3053C52.4774 36.123 53.2697 37.4307 53.4829 38.8561L53.5465 5.74315C53.5529 2.57726 50.9756 0 47.8097 0H5.75267C2.58678 0 0.00952148 2.58044 0.00952148 5.74315V61.3165C0.00952148 64.4855 2.58996 67.0628 5.75267 67.0628H18.1776L20.9108 64.3233Z" fill="#A91414"/>
</svg>
