<svg width="58" height="49" viewBox="0 0 58 49" fill="none" xmlns="http://www.w3.org/2000/svg">
<path d="M28.7126 0.0658166L22.5695 2.87189C22.5355 2.88814 22.5067 2.91369 22.4866 2.94558C22.4665 2.97748 22.4558 3.01442 22.4558 3.05214C22.4558 3.08985 22.4665 3.12679 22.4866 3.15869C22.5067 3.19059 22.5355 3.21614 22.5695 3.23239L28.7126 6.02871C28.804 6.07204 28.9038 6.09452 29.0049 6.09452C29.106 6.09452 29.2059 6.07204 29.2972 6.02871L35.4404 3.22751C35.4744 3.21126 35.5032 3.18571 35.5233 3.15381C35.5434 3.12191 35.5541 3.08497 35.5541 3.04726C35.5541 3.00955 35.5434 2.97261 35.5233 2.94071C35.5032 2.90881 35.4744 2.88326 35.4404 2.86701L29.2924 0.0658166C29.201 0.0224852 29.1012 0 29.0001 0C28.899 0 28.7991 0.0224852 28.7078 0.0658166" fill="white"/>
<path d="M28.9659 9.35119C26.267 9.35119 24.2258 8.43046 24.2258 7.21255V4.02649L28.5518 5.9995C28.6926 6.06358 28.8454 6.09675 29 6.09675C29.1547 6.09675 29.3075 6.06358 29.4482 5.9995L33.706 4.05084V7.20767C33.706 8.42558 31.6697 9.34632 28.9659 9.34632" fill="white"/>
<path d="M29.5893 6.3162C29.404 6.39955 29.2031 6.44266 28.9999 6.44266C28.7966 6.44266 28.5957 6.39955 28.4104 6.3162L24.5715 4.56242V7.21259C24.5715 8.18692 26.5202 9.00535 28.956 9.00535C31.3918 9.00535 33.3405 8.20641 33.3405 7.21259V4.59164L29.5893 6.3162Z" fill="white"/>
<path d="M12.2659 5.0934C11.5114 5.80049 10.9998 6.72812 10.8044 7.74358C11.8362 7.72095 12.8341 7.37124 13.6544 6.74488C14.4105 6.03906 14.9224 5.11086 15.1158 4.09471C14.0831 4.11996 13.0844 4.46934 12.2611 5.0934" fill="white"/>
<path d="M18.9157 44.1201C19.4991 44.9471 19.823 45.929 19.8462 46.9408C19.8462 46.9408 17.7904 46.2977 16.9232 44.8606C16.6687 44.4394 16.5032 43.9705 16.437 43.4828C16.3708 42.9952 16.4053 42.4991 16.5384 42.0253C17.4615 42.5673 18.2745 43.2779 18.9352 44.1201" fill="white"/>
<path d="M17.2886 48.4753C17.8084 48.4161 18.3088 48.2432 18.7543 47.9687C19.1997 47.6942 19.5791 47.3249 19.8657 46.8871C18.6801 46.5297 17.4448 46.3652 16.2071 46.3999C15.1838 46.481 14.2153 46.8951 13.4497 47.5789C13.4497 47.5789 15.4276 48.7383 17.2886 48.4899" fill="white"/>
<path d="M15.3544 42.3956C15.7417 43.3013 15.8519 44.3015 15.671 45.2699C15.671 45.2699 13.8734 44.2955 13.3132 42.7707C13.155 42.3145 13.0896 41.8313 13.1205 41.3495C13.1515 40.8677 13.2782 40.3969 13.4934 39.9646C14.2673 40.6468 14.8997 41.4744 15.3544 42.4005" fill="white"/>
<path d="M12.9723 46.3464C13.4796 46.3714 13.9863 46.2858 14.4573 46.0958C14.9284 45.9057 15.3525 45.6155 15.7004 45.2454C14.6546 44.6949 13.5229 44.3259 12.3536 44.1542C11.3573 44.0621 10.3582 44.2982 9.50854 44.8265C9.50854 44.8265 11.1746 46.288 12.9723 46.3464Z" fill="white"/>
<path d="M12.3145 40.1303C12.5089 41.0778 12.4226 42.0615 12.066 42.9607C12.066 42.9607 10.5412 41.7282 10.2879 40.1449C10.2193 39.6735 10.2447 39.1932 10.3625 38.7317C10.4804 38.2701 10.6885 37.8365 10.9748 37.4558C11.5978 38.2474 12.0536 39.1573 12.3145 40.1303Z" fill="white"/>
<path d="M9.28924 43.5209C9.77223 43.6317 10.2735 43.6368 10.7586 43.5359C11.2438 43.435 11.7014 43.2305 12.1002 42.9363C11.206 42.2243 10.1935 41.6752 9.10899 41.314C8.16202 41.0552 7.15652 41.1116 6.24446 41.4748C6.2201 41.4748 7.58416 43.1701 9.28924 43.5404" fill="white"/>
<path d="M9.80575 37.4069C9.82053 38.3622 9.55826 39.3013 9.05064 40.1107C9.05064 40.1107 7.8035 38.6492 7.8376 37.0707C7.85476 36.6001 7.96473 36.1374 8.16119 35.7094C8.35766 35.2814 8.63675 34.8963 8.98244 34.5765C9.44629 35.4542 9.72643 36.4173 9.80575 37.4069Z" fill="white"/>
<path d="M6.26408 40.179C6.71497 40.365 7.20052 40.4521 7.68796 40.4344C8.17539 40.4168 8.65337 40.2948 9.08963 40.0767C8.35416 39.229 7.47316 38.5196 6.48817 37.9819C5.61134 37.566 4.62312 37.4463 3.67236 37.6408C3.67236 37.6408 4.68079 39.5213 6.26408 40.179Z" fill="white"/>
<path d="M7.84719 34.3281C7.69445 35.2589 7.27474 36.1254 6.63903 36.8223C6.63903 36.8223 5.6647 35.1903 5.98623 33.6509C6.08152 33.1947 6.26728 32.7622 6.53252 32.379C6.79776 31.9957 7.13712 31.6696 7.53054 31.4197C7.84007 32.361 7.94796 33.3569 7.84719 34.3427" fill="white"/>
<path d="M3.91584 36.3985C4.32119 36.6624 4.77932 36.8344 5.25815 36.9026C5.73699 36.9707 6.22493 36.9334 6.68781 36.7931C6.11821 35.8401 5.38231 34.9969 4.51505 34.3037C3.72919 33.7414 2.78221 33.4491 1.81616 33.4706C1.81616 33.4706 2.48845 35.4875 3.91584 36.3936" fill="white"/>
<path d="M6.4637 30.9715C6.15081 31.8542 5.58698 32.6262 4.84144 33.193C4.84144 33.193 4.17889 31.4294 4.73426 29.9728C4.90562 29.5445 5.1606 29.1546 5.4843 28.8258C5.808 28.4971 6.19394 28.2362 6.61959 28.0582C6.76421 29.0342 6.70449 30.0296 6.44421 30.9812" fill="white"/>
<path d="M2.26449 32.3016C2.61635 32.6295 3.03484 32.8776 3.49138 33.0289C3.94791 33.1802 4.43174 33.2313 4.9098 33.1785C4.51391 32.1442 3.93649 31.189 3.20472 30.3578C2.53128 29.6693 1.65579 29.2137 0.705566 29.0571C0.705566 29.0571 1.02222 31.1567 2.26449 32.3016Z" fill="white"/>
<path d="M5.66967 27.4348C5.22235 28.2469 4.5442 28.9081 3.72101 29.3347C3.72101 29.3347 3.37025 27.4884 4.15459 26.1487C4.39346 25.7582 4.70851 25.4197 5.08096 25.1536C5.45341 24.8874 5.87564 24.699 6.32247 24.5995C6.29991 25.5797 6.07605 26.5447 5.66479 27.4348" fill="white"/>
<path d="M1.33874 27.9901C1.62575 28.3738 1.99168 28.6914 2.41187 28.9217C2.83206 29.152 3.29673 29.2895 3.77456 29.3249C3.56104 28.2356 3.15523 27.193 2.57614 26.246C2.03456 25.4476 1.25321 24.842 0.344925 24.5166C0.344925 24.5166 0.305952 26.6406 1.31925 27.9901" fill="white"/>
<path d="M5.48455 23.8054C4.91435 24.5256 4.14013 25.057 3.26308 25.3302C3.26308 25.3302 3.22897 23.4498 4.23741 22.2659C4.53496 21.9206 4.90049 21.6403 5.3112 21.4424C5.72191 21.2446 6.16898 21.1336 6.62451 21.1162C6.43381 22.0791 6.05108 22.9937 5.49916 23.8054" fill="white"/>
<path d="M1.14874 23.5765C1.36303 24.0073 1.66757 24.3869 2.04164 24.6895C2.41572 24.9921 2.85057 25.2107 3.31663 25.3303C3.2853 24.2147 3.06456 23.1127 2.66382 22.0711C2.27153 21.1881 1.61214 20.4503 0.778499 19.9617C0.778499 19.9617 0.36928 22.0614 1.14874 23.5765Z" fill="white"/>
<path d="M5.92288 20.1759C5.24402 20.788 4.39393 21.1773 3.48706 21.2916C3.65625 20.2024 4.1682 19.1956 4.94855 18.4173C5.29964 18.128 5.70686 17.9145 6.14454 17.7904C6.58222 17.6663 7.04086 17.6343 7.49155 17.6963C7.13531 18.6206 6.59688 19.4638 5.90827 20.1759" fill="white"/>
<path d="M1.72351 19.1724C1.85801 19.6351 2.08907 20.0641 2.40144 20.4311C2.71382 20.798 3.10042 21.0946 3.53577 21.3013C3.7031 20.1884 3.68169 19.0553 3.47244 17.9496C3.25515 17.0035 2.74346 16.1507 2.01094 15.5138C2.01094 15.5138 1.23148 17.5355 1.72839 19.1772" fill="white"/>
<path d="M7.00944 16.6295C6.23789 17.1217 5.33164 17.3602 4.41772 17.3115C4.41772 17.3115 5.04129 15.4944 6.40048 14.7003C6.79641 14.4734 7.23546 14.3319 7.68938 14.2849C8.1433 14.2379 8.60203 14.2865 9.03604 14.4275C8.50908 15.2855 7.82086 16.0332 7.00944 16.6295Z" fill="white"/>
<path d="M3.08269 14.8902C3.12768 15.371 3.27428 15.8368 3.5128 16.2567C3.75131 16.6767 4.07629 17.0411 4.46623 17.326C4.83106 16.2426 5.0202 15.1078 5.02647 13.9646C4.99255 12.9836 4.65178 12.038 4.05215 11.2608C4.05215 11.2608 2.88295 13.151 3.07782 14.8805" fill="white"/>
<path d="M8.73873 13.2776C7.89277 13.6373 6.95406 13.7176 6.05933 13.5066C6.05933 13.5066 7.03366 11.7967 8.53412 11.2316C8.96527 11.0689 9.42635 11.0008 9.88612 11.0319C10.3459 11.063 10.7936 11.1926 11.1989 11.4118C10.5074 12.1769 9.68189 12.8092 8.76309 13.2776" fill="white"/>
<path d="M5.24581 10.8369C5.18767 11.3235 5.23598 11.8168 5.38739 12.2828C5.5388 12.7489 5.7897 13.1764 6.1227 13.5358C6.69091 12.5093 7.10459 11.4045 7.35036 10.2572C7.52953 9.27663 7.39663 8.26455 6.97037 7.36346C6.97037 7.36346 5.40657 9.06852 5.24581 10.8369Z" fill="white"/>
<path d="M11.1745 10.1988C10.2706 10.418 9.32004 10.3376 8.46582 9.96984C8.46582 9.96984 9.78604 8.41092 11.4229 8.08939C11.8806 7.99339 12.3539 7.99996 12.8087 8.10862C13.2636 8.21728 13.6887 8.42533 14.0536 8.71784C13.1847 9.36638 12.2108 9.86075 11.1745 10.1793" fill="white"/>
<path d="M8.25165 7.12972C8.08325 7.60012 8.02168 8.10211 8.07139 8.59926C8.12111 9.09641 8.28086 9.57625 8.53907 10.004C9.32665 9.06295 9.98224 8.01893 10.4877 6.90075C10.8906 5.9556 10.9893 4.9085 10.7703 3.9047C10.7703 3.9047 8.82163 5.36619 8.26626 7.12972" fill="white"/>
<path d="M25.6969 47.6228V47.3012C23.0213 47.4416 20.345 47.0389 17.8292 46.1174C15.3385 45.2143 13.0434 43.8435 11.0673 42.0788C6.87273 38.3533 4.26181 33.1645 3.76962 27.576C3.33604 22.9479 3.79885 18.8557 5.14342 15.3969C6.48436 11.8187 9.03973 8.82536 12.3632 6.93967L12.2024 6.66199C8.80908 8.5833 6.2024 11.6402 4.84138 15.2945C3.48219 18.7826 3.00964 22.9284 3.44322 27.6101C3.94271 33.2751 6.58611 38.5358 10.8335 42.3176C12.8415 44.1104 15.1727 45.5042 17.7025 46.4244C20.2594 47.3583 22.9786 47.766 25.6969 47.6228Z" fill="white"/>
<path d="M45.7339 5.0934C46.4872 5.80152 46.9985 6.7287 47.1954 7.74358C46.1531 7.77283 45.1366 7.41683 44.3403 6.74365C43.544 6.07047 43.0238 5.12736 42.8792 4.09471C43.9119 4.11996 44.9106 4.46934 45.7339 5.0934Z" fill="white"/>
<path d="M39.0843 44.1201C38.5033 44.9483 38.1796 45.9295 38.1538 46.9408C38.1538 46.9408 40.2145 46.2977 41.0768 44.8606C41.3324 44.4398 41.4985 43.9709 41.5647 43.4831C41.631 42.9952 41.5959 42.499 41.4617 42.0253C40.5385 42.5673 39.7255 43.2779 39.0648 44.1201" fill="white"/>
<path d="M40.7114 48.4753C40.1915 48.4161 39.6911 48.2432 39.2457 47.9687C38.8003 47.6942 38.4208 47.3249 38.1343 46.8871C39.3198 46.5297 40.5551 46.3652 41.7929 46.3999C42.8161 46.481 43.7847 46.8951 44.5502 47.5789C44.5746 47.5789 42.5723 48.7383 40.7114 48.4899" fill="white"/>
<path d="M42.6453 42.3956C42.2609 43.3021 42.1508 44.3014 42.3287 45.2699C42.3287 45.2699 44.1263 44.2955 44.6866 42.7707C44.846 42.3148 44.9123 41.8314 44.8813 41.3494C44.8503 40.8673 44.7228 40.3964 44.5063 39.9646C43.7324 40.6468 43.1001 41.4744 42.6453 42.4005" fill="white"/>
<path d="M45.0277 46.3464C44.5204 46.3714 44.0136 46.2858 43.5426 46.0958C43.0716 45.9057 42.6475 45.6155 42.2996 45.2454C43.3458 44.6958 44.4773 44.3269 45.6464 44.1542C46.6427 44.0621 47.6417 44.2982 48.4914 44.8265C48.5158 44.8265 46.8302 46.288 45.0277 46.3464Z" fill="white"/>
<path d="M45.6852 40.1303C45.4936 41.078 45.5799 42.0609 45.9337 42.9607C45.9337 42.9607 47.4585 41.7282 47.7167 40.1449C47.7851 39.6732 47.7592 39.1926 47.6405 38.7309C47.5217 38.2693 47.3125 37.8359 47.0249 37.4558C46.4019 38.2474 45.9461 39.1573 45.6852 40.1303Z" fill="white"/>
<path d="M48.7106 43.5209C48.2262 43.629 47.7242 43.6309 47.239 43.5266C46.7538 43.4224 46.2969 43.2143 45.8997 42.9168C46.7938 42.2048 47.8063 41.6556 48.8908 41.2945C49.8395 41.036 50.8464 41.0924 51.7602 41.4553C51.7602 41.4553 50.4157 43.1506 48.7106 43.5209Z" fill="white"/>
<path d="M48.1991 37.4069C48.1871 38.3618 48.4492 39.3002 48.9542 40.1107C48.9542 40.1107 50.2014 38.6492 50.1673 37.0707C50.1501 36.6001 50.0401 36.1374 49.8437 35.7094C49.6472 35.2814 49.3681 34.8963 49.0224 34.5765C48.5586 35.4542 48.2784 36.4173 48.1991 37.4069Z" fill="white"/>
<path d="M51.7359 40.179C51.2851 40.365 50.7995 40.4521 50.3121 40.4344C49.8246 40.4168 49.3467 40.2948 48.9104 40.0767C49.6459 39.229 50.5269 38.5196 51.5119 37.9819C52.3887 37.566 53.3769 37.4463 54.3277 37.6408C54.3277 37.6408 53.3192 39.5213 51.7359 40.179Z" fill="white"/>
<path d="M50.1477 34.3281C50.3004 35.2589 50.7201 36.1254 51.3558 36.8223C51.3558 36.8223 52.3302 35.1903 52.0087 33.6509C51.9134 33.1947 51.7276 32.7622 51.4624 32.379C51.1971 31.9957 50.8578 31.6696 50.4643 31.4197C50.1548 32.361 50.0469 33.3569 50.1477 34.3427" fill="white"/>
<path d="M54.084 36.3985C53.6786 36.6624 53.2205 36.8344 52.7417 36.9026C52.2628 36.9707 51.7749 36.9334 51.312 36.7931C51.8816 35.8401 52.6175 34.9969 53.4848 34.3037C54.2706 33.7414 55.2176 33.4491 56.1837 33.4706C56.1837 33.4706 55.5114 35.4875 54.084 36.3936" fill="white"/>
<path d="M51.5363 30.9716C51.843 31.8536 52.3999 32.6272 53.139 33.198C53.139 33.198 53.8016 31.4344 53.2462 29.9778C53.0748 29.5495 52.8199 29.1596 52.4962 28.8308C52.1725 28.5021 51.7865 28.2412 51.3609 28.0632C51.2162 29.0392 51.276 30.0346 51.5363 30.9862" fill="white"/>
<path d="M55.7353 32.3014C55.3825 32.6346 54.9614 32.8869 54.5012 33.0408C54.041 33.1948 53.5528 33.2467 53.0706 33.1929C53.4664 32.1587 54.0439 31.2034 54.7756 30.3722C55.4491 29.6838 56.3246 29.2281 57.2748 29.0715C57.2748 29.0715 56.9581 31.1712 55.7159 32.316" fill="white"/>
<path d="M52.3303 27.4348C52.7776 28.2469 53.4558 28.9081 54.279 29.3347C54.279 29.3347 54.6297 27.4884 53.8454 26.1487C53.6071 25.7587 53.2928 25.4206 52.9212 25.1544C52.5496 24.8883 52.1283 24.6996 51.6824 24.5995C51.6992 25.5798 51.9216 26.5458 52.3352 27.4348" fill="white"/>
<path d="M56.6612 27.9901C56.3742 28.3738 56.0082 28.6914 55.588 28.9217C55.1678 29.152 54.7032 29.2895 54.2253 29.3249C54.4389 28.2356 54.8447 27.193 55.4238 26.246C55.9653 25.4476 56.7467 24.842 57.655 24.5166C57.655 24.5166 57.694 26.6406 56.6807 27.9901" fill="white"/>
<path d="M52.5203 23.8054C53.0882 24.5259 53.861 25.0575 54.7369 25.3302C54.7369 25.3302 54.771 23.4498 53.7626 22.2659C53.465 21.9206 53.0995 21.6403 52.6888 21.4424C52.2781 21.2446 51.831 21.1336 51.3755 21.1162C51.5677 22.0795 51.9521 22.9941 52.5057 23.8054" fill="white"/>
<path d="M56.8512 23.5765C56.6369 24.0073 56.3324 24.3869 55.9583 24.6895C55.5843 24.9921 55.1494 25.2107 54.6833 25.3303C54.7147 24.2147 54.9354 23.1127 55.3361 22.0711C55.7284 21.1881 56.3878 20.4503 57.2215 19.9617C57.2215 19.9617 57.6307 22.0614 56.8512 23.5765Z" fill="white"/>
<path d="M52.0963 20.1759C52.7751 20.788 53.6252 21.1773 54.5321 21.2916C54.3629 20.2024 53.8509 19.1956 53.0706 18.4173C52.7195 18.128 52.3123 17.9145 51.8746 17.7904C51.4369 17.6663 50.9783 17.6343 50.5276 17.6963C50.8838 18.6206 51.4223 19.4638 52.1109 20.1759" fill="white"/>
<path d="M56.2764 19.1724C56.1419 19.6351 55.9108 20.0641 55.5985 20.4311C55.2861 20.798 54.8995 21.0946 54.4641 21.3013C54.2968 20.1884 54.3182 19.0553 54.5275 17.9496C54.7447 17.0035 55.2564 16.1507 55.9889 15.5138C55.9889 15.5138 56.7684 17.5355 56.2715 19.1772" fill="white"/>
<path d="M50.9907 16.6295C51.7623 17.1217 52.6685 17.3602 53.5824 17.3115C53.5824 17.3115 52.9589 15.4944 51.5997 14.7003C51.2037 14.4734 50.7647 14.3319 50.3108 14.2849C49.8569 14.2379 49.3981 14.2865 48.9641 14.4275C49.4911 15.2855 50.1793 16.0332 50.9907 16.6295Z" fill="white"/>
<path d="M54.9172 14.8902C54.8747 15.3717 54.7291 15.8384 54.4904 16.2586C54.2517 16.6789 53.9254 17.0429 53.5336 17.326C53.1712 16.242 52.9821 15.1076 52.9734 13.9646C53.0073 12.9836 53.3481 12.038 53.9477 11.2608C53.9477 11.2608 55.1169 13.151 54.922 14.8805" fill="white"/>
<path d="M49.2414 13.2776C50.0874 13.6373 51.0261 13.7176 51.9208 13.5066C51.9452 13.5066 50.9465 11.7967 49.446 11.2316C49.0149 11.0689 48.5538 11.0008 48.094 11.0319C47.6343 11.063 47.1866 11.1926 46.7812 11.4118C47.4728 12.1769 48.2983 12.8092 49.2171 13.2776" fill="white"/>
<path d="M52.7542 10.8369C52.8123 11.3235 52.764 11.8168 52.6126 12.2828C52.4612 12.7489 52.2103 13.1764 51.8773 13.5358C51.3091 12.5093 50.8954 11.4045 50.6496 10.2572C50.4705 9.27663 50.6033 8.26455 51.0296 7.36346C51.0296 7.36346 52.5934 9.06852 52.7542 10.8369Z" fill="white"/>
<path d="M46.8059 10.1989C47.7097 10.4191 48.6606 10.3387 49.5145 9.96993C49.5389 9.96993 48.1943 8.41101 46.5575 8.08948C46.1006 7.9925 45.6278 7.99858 45.1736 8.10729C44.7194 8.216 44.2951 8.42461 43.9316 8.71792C44.7984 9.36697 45.7708 9.8614 46.8059 10.1794" fill="white"/>
<path d="M49.7628 7.12972C49.9312 7.60012 49.9928 8.10211 49.9431 8.59926C49.8934 9.09641 49.7336 9.57625 49.4754 10.004C48.6878 9.06295 48.0322 8.01893 47.5267 6.90075C47.1239 5.9556 47.0251 4.9085 47.2442 3.9047C47.2442 3.9047 49.1928 5.36619 49.7482 7.12972" fill="white"/>
<path d="M32.3029 47.6228V47.3012C34.9785 47.4416 37.6548 47.0389 40.1706 46.1174C42.6613 45.2143 44.9564 43.8435 46.9325 42.0788C51.1193 38.349 53.7243 33.1616 54.2156 27.576C54.6443 22.9479 54.1815 18.8557 52.8369 15.3969C51.496 11.8187 48.9406 8.82536 45.6171 6.93967L45.7779 6.66199C49.1686 8.57967 51.775 11.6311 53.139 15.2799C54.4981 18.768 54.9707 22.9138 54.5371 27.5955C54.0376 33.2605 51.3942 38.5212 47.1468 42.3029C45.1388 44.0958 42.8076 45.4896 40.2778 46.4097C37.721 47.3437 35.0018 47.7513 32.2834 47.6082" fill="white"/>
<path d="M27.7917 41.197L14.7016 35.5167C14.625 35.4842 14.5598 35.43 14.5139 35.3607C14.468 35.2914 14.4434 35.2101 14.4434 35.127V15.3091C14.4432 15.2379 14.4607 15.1678 14.4944 15.1051C14.528 15.0423 14.5768 14.989 14.6363 14.9498C14.6957 14.9107 14.764 14.8869 14.835 14.8808C14.9059 14.8746 14.9772 14.8862 15.0426 14.9145L28.1327 20.5949C28.2092 20.6274 28.2745 20.6816 28.3204 20.7509C28.3663 20.8202 28.3908 20.9015 28.3909 20.9846V40.8024C28.3911 40.8736 28.3736 40.9438 28.3399 41.0065C28.3062 41.0692 28.2574 41.1226 28.198 41.1617C28.1385 41.2009 28.0702 41.2246 27.9993 41.2308C27.9283 41.237 27.857 41.2254 27.7917 41.197Z" fill="white"/>
<path d="M28.3909 19.8836L17.8877 12.8879C17.8553 12.8668 17.8178 12.8549 17.7792 12.8534C17.7406 12.8518 17.7022 12.8608 17.6683 12.8793C17.6344 12.8977 17.606 12.925 17.5863 12.9583C17.5666 12.9915 17.5563 13.0295 17.5564 13.0681V15.046C17.5565 15.0873 17.5686 15.1276 17.591 15.1621C17.6135 15.1967 17.6454 15.224 17.6831 15.2409L28.3909 19.8836Z" fill="white"/>
<path d="M28.391 18.6463L20.7328 11.3389C20.7028 11.3091 20.6647 11.2889 20.6233 11.2807C20.5819 11.2725 20.5389 11.2768 20.4999 11.2929C20.4609 11.309 20.4275 11.3363 20.4039 11.3714C20.3803 11.4064 20.3676 11.4477 20.3674 11.4899V13.268C20.3678 13.3038 20.3768 13.3388 20.3938 13.3703C20.4108 13.4017 20.4352 13.4285 20.4649 13.4483L28.391 18.6463Z" fill="white"/>
<path d="M30.2081 41.197L43.2982 35.5167C43.3747 35.4842 43.44 35.43 43.4859 35.3607C43.5318 35.2914 43.5563 35.2101 43.5564 35.127V15.3091C43.5566 15.2379 43.5391 15.1678 43.5054 15.1051C43.4717 15.0423 43.423 14.989 43.3635 14.9498C43.304 14.9107 43.2357 14.8869 43.1648 14.8808C43.0939 14.8746 43.0225 14.8862 42.9572 14.9145L29.8671 20.5949C29.7906 20.6274 29.7253 20.6816 29.6794 20.7509C29.6335 20.8202 29.609 20.9015 29.6089 20.9846V40.8024C29.6087 40.8736 29.6262 40.9438 29.6599 41.0065C29.6936 41.0692 29.7423 41.1226 29.8018 41.1617C29.8613 41.2009 29.9296 41.2246 30.0005 41.2308C30.0714 41.237 30.1428 41.2254 30.2081 41.197Z" fill="white"/>
<path d="M29.6089 19.8836L40.1122 12.8879C40.1445 12.8668 40.182 12.8549 40.2207 12.8534C40.2593 12.8518 40.2976 12.8608 40.3315 12.8793C40.3655 12.8977 40.3938 12.925 40.4135 12.9583C40.4332 12.9915 40.4435 13.0295 40.4434 13.0681V15.046C40.4433 15.0873 40.4313 15.1276 40.4088 15.1621C40.3863 15.1967 40.3544 15.224 40.3168 15.2409L29.6089 19.8836Z" fill="white"/>
<path d="M29.6089 18.6463L37.2671 11.3389C37.2971 11.3091 37.3352 11.2889 37.3766 11.2807C37.4181 11.2725 37.461 11.2768 37.5 11.2929C37.5391 11.309 37.5724 11.3363 37.596 11.3714C37.6196 11.4064 37.6323 11.4477 37.6325 11.4899V13.268C37.633 13.3039 37.6244 13.3393 37.6073 13.3709C37.5903 13.4025 37.5654 13.4291 37.5351 13.4483L29.6089 18.6463Z" fill="white"/>
</svg>
