<svg width="80" height="78" viewBox="0 0 80 78" fill="none" xmlns="http://www.w3.org/2000/svg">
<path d="M53.875 38.8125L45.7188 40.9688V36.9688L53.875 34.7812V38.8125ZM53.875 41.875L45.7188 44.0625V48.0625L53.875 45.875V41.875ZM65.5312 31.5625L56.875 33.9062V41.0938V45.0938L65.5312 42.7813V31.5625ZM65.5312 46L45.7188 51.2188V55.25L65.5312 50V46ZM65.5312 57.0625V53.0313L45.7188 58.3125V62.3125L65.5312 57.0625ZM14.4375 31.5625V35.5938L34.25 40.7188V36.7188L14.4375 31.5625ZM14.4375 42.6562L34.25 47.8125V43.8125L14.4375 38.6562V42.6562ZM14.4375 49.75L34.25 55V50.9688L14.4375 45.75V49.75ZM14.4375 56.8438L34.25 62.0625V58.0625L14.4375 52.8125V56.8438ZM80 41.5938C80 44.7188 77.4688 47.2188 74.375 47.2188H73.75V63.5312C73.75 63.9688 73.4688 64.3438 73.0625 64.4375L59.625 68V77.6875H20.4375V68L6.96875 64.4375C6.5625 64.3438 6.28125 63.9688 6.28125 63.5312V47.2188H5.65625C2.53125 47.2188 0.03125 44.6875 0.03125 41.5938C0.03125 38.5 2.5625 35.9688 5.65625 35.9688H6.28125V20.375C6.28125 20.0938 6.40625 19.8125 6.65625 19.625C6.875 19.4375 7.1875 19.375 7.46875 19.4687L40.0938 28.0938L72.625 19.4687C72.9062 19.4062 73.2188 19.4687 73.4375 19.625C73.6562 19.7812 73.8125 20.0625 73.8125 20.375V35.9375H74.4062C77.4688 35.9375 80 38.4688 80 41.5938ZM38.2812 32.6875L11.2188 25.5312V60.5L38.2812 67.6562V32.6875ZM68.875 25.5312L41.875 32.6875V67.625L68.875 60.5V25.5312ZM40 25.125C46.6875 25.125 52.0937 19.7187 52.0937 13.0312C52.0937 6.34375 46.6875 0.9375 40 0.9375C33.3125 0.9375 27.9063 6.34375 27.9063 13.0312C27.9063 19.7187 33.3125 25.125 40 25.125Z" fill="#524FD5"/>
</svg>
